<svg width="108" height="24" viewBox="0 0 108 24" fill="none" xmlns="http://www.w3.org/2000/svg">
<path d="M0.960022 23H9.85602V22.552C6.65602 22.136 5.69602 20.792 5.69602 17.56V2.87205H5.88802L14.208 23.032H15.36L22.816 2.87205H22.976V20.728C22.976 22.008 22.176 22.456 19.904 22.552V23H30.944V22.552C28.256 22.456 27.616 21.944 27.616 20.728V2.96804C27.616 1.75204 28.256 1.20804 30.944 1.11205V0.696045H22.784L16.736 17.144H16.576L9.98402 0.696045H0.960022V1.11205C3.71202 1.17604 4.89602 2.64804 4.89602 4.56804V17.56C4.89602 20.792 3.96802 22.168 0.960022 22.552V23Z" fill="white"/>
<path d="M52.128 23.352H53.664V6.10405C53.664 2.93604 54.528 1.56005 57.536 1.11205V0.696045H48.448V1.11205C51.68 1.49604 52.864 2.93604 52.864 6.10405V16.728H52.832L40.512 0.696045H32.96V1.11205C35.712 1.24005 36.896 2.87205 36.896 4.82405V17.56C36.896 20.792 35.968 22.168 32.96 22.552V23H41.984V22.552C38.72 22.2 37.696 20.792 37.696 17.56V4.72804H37.728L52.128 23.352Z" fill="white"/>
<path d="M63.6 23H75.696V22.552C72.848 22.488 71.984 21.944 71.984 20.728V1.27205H72.752C75.216 1.27205 77.136 3.73604 79.376 8.08805L79.856 8.02404L79.696 0.696045H59.568L59.376 8.02404L59.856 8.08805C62.128 3.64005 64.08 1.27205 66.512 1.27205H67.312V20.728C67.312 21.944 66.416 22.488 63.6 22.552V23Z" fill="white"/>
<path d="M102.128 23.352H103.664V6.10405C103.664 2.93604 104.528 1.56005 107.536 1.11205V0.696045H98.448V1.11205C101.68 1.49604 102.864 2.93604 102.864 6.10405V16.728H102.832L90.512 0.696045H82.96V1.11205C85.712 1.24005 86.896 2.87205 86.896 4.82405V17.56C86.896 20.792 85.968 22.168 82.96 22.552V23H91.984V22.552C88.72 22.2 87.696 20.792 87.696 17.56V4.72804H87.728L102.128 23.352Z" fill="white"/>
</svg>
